HIERARCHY
ROOT Hips
{
	OFFSET	0.00	0.00	0.00
	CHANNELS 6 Xposition Yposition Zposition Zrotation Xrotation Yrotation
	JOINT LeftUpLeg
	{
		OFFSET	 3.430000	 0.000000	 0.000000
		CHANNELS 3 Zrotation Xrotation Yrotation
		JOINT LeftLowLeg
		{
			OFFSET	 0.000000	-18.469999	 0.000000
			CHANNELS 3 Zrotation Xrotation Yrotation
			JOINT LeftFoot
			{
				OFFSET	 0.000000	-17.950001	 0.000000
				CHANNELS 3 Zrotation Xrotation Yrotation
				End Site 
				{
					OFFSET	 0.000000	-3.119996	 0.000000
				}
			}
		}
	}
	JOINT RightUpLeg
	{
		OFFSET	-3.430000	 0.000000	 0.000000
		CHANNELS 3 Zrotation Xrotation Yrotation
		JOINT RightLowLeg
		{
			OFFSET	 0.000000	-18.809999	 0.000000
			CHANNELS 3 Zrotation Xrotation Yrotation
			JOINT RightFoot
			{
				OFFSET	 0.000000	-17.570000	 0.000000
				CHANNELS 3 Zrotation Xrotation Yrotation
				End Site 
				{
					OFFSET	 0.000000	-3.250000	 0.000000
				}
			}
		}
	}
	JOINT Chest
	{
		OFFSET	 0.000000	 4.570000	 0.000000
		CHANNELS 3 Zrotation Xrotation Yrotation
		JOINT LeftCollar
		{
			OFFSET	 1.060000	 15.330000	 1.760000
			CHANNELS 3 Zrotation Xrotation Yrotation
			JOINT LeftUpArm
			{
				OFFSET	 5.810000	 0.000000	 0.000000
				CHANNELS 3 Zrotation Xrotation Yrotation
				JOINT LeftLowArm
				{
					OFFSET	 0.000000	-12.080000	 0.000000
					CHANNELS 3 Zrotation Xrotation Yrotation
					JOINT LeftHand
					{
						OFFSET	 0.000000	-9.820000	 0.000000
						CHANNELS 3 Zrotation Xrotation Yrotation
						End Site 
						{
							OFFSET	 0.000000	-7.369996	 0.000000
						}
					}
				}
			}
		}
		JOINT RightCollar
		{
			OFFSET	-1.060000	 15.330000	 1.760000
			CHANNELS 3 Zrotation Xrotation Yrotation
			JOINT RightUpArm
			{
				OFFSET	-6.060000	 0.000000	 0.000000
				CHANNELS 3 Zrotation Xrotation Yrotation
				JOINT RightLowArm
				{
					OFFSET	 0.000000	-11.900000	 0.000000
					CHANNELS 3 Zrotation Xrotation Yrotation
					JOINT RightHand
					{
						OFFSET	 0.000000	-9.520000	 0.000000
						CHANNELS 3 Zrotation Xrotation Yrotation
						End Site 
						{
							OFFSET	 0.000000	-7.140012	 0.000000
						}
					}
				}
			}
		}
		JOINT Neck
		{
			OFFSET	 0.000000	 17.620001	 0.000000
			CHANNELS 3 Zrotation Xrotation Yrotation
			JOINT Head
			{
				OFFSET	 0.000000	 5.190000	 0.000000
				CHANNELS 3 Zrotation Xrotation Yrotation
				End Site 
				{
					OFFSET	 0.000000	 4.140007	 0.000000
				}
			}
		}
	}
}
MOTION
Frames:     27
Frame Time: 0.033333
 0.00	 39.81	 0.00	 2.11	-8.72	 0.18	 2.99	 8.19	-0.43	-7.91	 17.36	 55.57	-3.92	-11.98	 1.10	 0.81	 12.48	-0.18	 1.06	-1.35	-23.82	-7.18	-6.21	 2.10	-0.70	 15.29	-3.98	-10.24	 0.00	-0.22	 29.55	 6.75	 0.34	 0.00	-34.92	 10.37	 0.00	 0.00	 0.00	 13.20	 0.00	 9.76	-22.65	 15.17	-8.50	 0.00	-32.46	-17.99	 0.00	 0.00	 0.00	 8.55	 49.85	 0.00	-6.06	-44.14	-13.91	
 0.17	 39.76	 0.01	 2.52	-9.12	 4.08	 3.01	 9.20	-0.48	-7.45	 16.73	 54.57	-3.90	-9.93	 1.24	 0.97	 13.31	-0.22	 1.05	-1.57	-27.58	-7.18	-6.44	 2.07	-0.17	 15.56	-3.85	-9.42	 0.00	-1.85	 29.75	 8.01	 2.53	 0.00	-34.00	 10.68	 0.00	 0.00	 0.00	 12.92	 0.00	 9.51	-23.19	 13.73	-7.27	 0.00	-32.19	-17.89	 0.00	 0.00	 0.00	 11.50	 49.95	 0.00	-8.87	-44.07	-19.81	
 0.32	 39.70	-0.03	 2.86	-9.13	 7.96	 2.97	 10.03	-0.52	-6.34	 15.38	 51.71	-3.88	-8.30	 1.36	 1.09	 12.96	-0.25	 1.36	-0.36	-31.35	-7.19	-7.08	 1.99	 0.31	 15.53	-3.22	-8.41	 0.00	-3.93	 29.65	 9.33	 4.46	 0.00	-32.98	 11.06	 0.00	 0.00	 0.00	 12.80	 0.00	 9.09	-23.83	 12.19	-5.43	 0.00	-32.39	-17.81	 0.00	 0.00	 0.00	 14.49	 49.78	 0.00	-11.50	-44.09	-25.52	
 0.43	 39.65	-0.09	 3.01	-9.09	 11.67	 3.07	 10.96	-0.58	-4.89	 13.46	 47.80	-3.87	-7.80	 1.39	 1.26	 11.62	-0.25	 2.08	 2.56	-35.03	-7.21	-7.88	 1.89	 0.85	 15.47	-2.39	-7.41	 0.00	-5.80	 29.43	 10.60	 5.80	 0.00	-31.79	 11.55	 0.00	 0.00	 0.00	 12.88	 0.00	 9.13	-24.47	 10.78	-3.07	 0.00	-32.86	-17.68	 0.00	 0.00	 0.00	 17.07	 49.43	 0.00	-13.49	-44.21	-30.55	
 0.50	 39.63	-0.13	 3.26	-9.42	 15.01	 3.22	 12.24	-0.68	-3.58	 11.40	 44.02	-3.88	-7.98	 1.38	 1.01	 9.60	-0.17	 3.52	 7.47	-38.29	-7.22	-8.39	 1.83	 1.18	 15.96	-1.32	-6.49	 0.00	-7.18	 29.03	 11.76	 6.77	 0.00	-30.75	 12.03	 0.00	 0.00	 0.00	 13.18	 0.00	 9.83	-24.95	 9.35	-0.03	 0.00	-33.59	-17.43	 0.00	 0.00	 0.00	 19.35	 48.88	 0.00	-15.24	-44.29	-35.29	
 0.57	 39.64	-0.15	 3.87	-10.09	 18.17	 3.27	 13.72	-0.78	-2.64	 9.68	 40.57	-3.88	-8.08	 1.37	-0.24	 7.20	 0.03	 6.33	 13.87	-41.31	-7.21	-8.30	 1.84	 1.22	 17.23	 0.05	-5.56	 0.00	-8.09	 28.12	 12.72	 7.77	 0.00	-29.96	 12.42	 0.00	 0.00	 0.00	 13.44	 0.00	 10.89	-24.88	 7.66	 3.39	 0.00	-34.45	-17.06	 0.00	 0.00	 0.00	 21.30	 48.20	 0.00	-16.82	-44.36	-39.85	
 0.64	 39.69	-0.12	 4.75	-10.76	 21.31	 3.41	 15.02	-0.88	-2.19	 8.41	 37.41	-3.88	-7.99	 1.38	-2.40	 4.71	 0.20	 10.40	 20.23	-44.48	-7.20	-7.73	 1.91	 1.21	 18.75	 1.63	-4.86	 0.00	-8.59	 26.82	 13.61	 8.71	 0.00	-29.37	 12.73	 0.00	 0.00	 0.00	 13.48	 0.00	 12.41	-24.11	 6.19	 6.93	 0.00	-35.31	-16.55	 0.00	 0.00	 0.00	 22.92	 47.48	 0.00	-18.22	-44.46	-44.20	
 0.68	 39.76	-0.07	 5.38	-10.92	 24.54	 3.93	 15.43	-1.05	-2.05	 7.69	 34.16	-3.87	-7.76	 1.39	-4.84	 2.19	 0.19	 14.70	 24.81	-47.47	-7.20	-7.27	 1.97	 1.56	 19.67	 3.19	-4.56	 0.00	-8.78	 25.36	 14.64	 9.42	 0.00	-28.60	 13.15	 0.00	 0.00	 0.00	 13.47	 0.00	 14.65	-22.88	 5.40	 10.52	 0.00	-36.64	-16.09	 0.00	 0.00	 0.00	 24.28	 46.62	 0.00	-19.55	-44.58	-48.36	
 0.66	 39.85	 0.03	 5.56	-10.52	 27.89	 4.75	 14.92	-1.23	-1.98	 7.41	 30.73	-3.87	-7.54	 1.41	-7.13	-0.02	 0.00	 17.44	 26.58	-49.34	-7.19	-7.05	 2.00	 2.42	 19.86	 4.60	-4.86	 0.00	-8.40	 24.10	 15.67	 9.84	 0.00	-27.54	 13.75	 0.00	 0.00	 0.00	 13.60	 0.00	 16.54	-21.68	 4.23	 14.84	 0.00	-38.04	-15.68	 0.00	 0.00	 0.00	 25.48	 45.53	 0.00	-20.88	-44.59	-52.37	
 0.63	 39.96	 0.21	 5.45	-9.96	 31.21	 5.65	 14.22	-1.39	-1.65	 7.04	 27.35	-3.87	-7.17	 1.43	-9.12	-1.37	-0.22	 17.46	 25.49	-49.18	-7.18	-6.44	 2.07	 3.61	 19.69	 5.97	-5.54	 0.00	-7.34	 23.01	 16.74	 10.44	 0.00	-26.33	 14.46	 0.00	 0.00	 0.00	 13.79	 0.00	 17.50	-20.72	 2.01	 20.34	 0.00	-39.15	-15.32	 0.00	 0.00	 0.00	 26.55	 44.22	 0.00	-22.17	-44.42	-56.25	
 0.56	 40.05	 0.52	 5.47	-9.57	 34.66	 6.52	 13.92	-1.57	-1.02	 6.38	 23.95	-3.86	-6.52	 1.48	-10.94	-1.37	-0.26	 15.14	 22.04	-47.20	-7.17	-4.96	 2.26	 4.77	 19.69	 7.42	-6.19	 0.00	-6.04	 22.15	 18.05	 11.67	 0.00	-25.05	 15.27	 0.00	 0.00	 0.00	 13.91	 0.00	 18.21	-19.90	-0.83	 25.86	 0.00	-40.34	-15.21	 0.00	 0.00	 0.00	 27.44	 42.79	 0.00	-23.37	-44.15	-59.99	
 0.45	 40.11	 0.92	 5.74	-9.20	 38.41	 7.38	 13.71	-1.76	-0.36	 5.67	 20.37	-3.86	-5.73	 1.53	-12.74	-0.20	-0.05	 11.60	 16.81	-44.71	-7.14	-2.22	 2.61	 5.70	 19.82	 8.71	-6.66	 0.00	-4.74	 21.79	 19.48	 13.81	 0.00	-23.61	 16.25	 0.00	 0.00	 0.00	 14.12	 0.00	 19.40	-19.61	-4.00	 30.22	 0.00	-41.61	-15.51	 0.00	 0.00	 0.00	 28.08	 41.34	 0.00	-24.42	-43.92	-63.52	
 0.27	 40.13	 1.41	 6.20	-8.75	 42.30	 8.32	 13.33	-1.93	 0.14	 5.16	 16.72	-3.85	-4.86	 1.59	-14.51	 1.74	 0.45	 7.69	 10.67	-42.86	-7.14	 2.00	 3.13	 6.42	 19.92	 9.73	-6.89	 0.00	-3.35	 22.32	 21.07	 16.04	 0.00	-22.36	 17.19	 0.00	 0.00	 0.00	 14.55	 0.00	 21.16	-20.43	-7.67	 33.38	 0.00	-42.74	-16.20	 0.00	 0.00	 0.00	 28.45	 39.92	 0.00	-25.20	-43.79	-66.68	
 0.03	 40.11	 1.98	 6.79	-8.11	 45.90	 9.17	 12.75	-2.04	 0.39	 4.96	 13.41	-3.85	-4.09	 1.64	-16.34	 3.91	 1.15	 3.97	 4.66	-42.21	-7.20	 7.21	 3.79	 6.81	 20.02	 10.79	-6.86	 0.00	-1.61	 23.86	 22.64	 19.09	 0.00	-21.65	 17.81	 0.00	 0.00	 0.00	 14.87	 0.00	 23.05	-22.61	-12.26	 35.64	 0.00	-43.16	-17.13	 0.00	 0.00	 0.00	 28.58	 38.53	 0.00	-25.64	-43.72	-69.36	
-0.27	 40.06	 2.61	 7.27	-7.24	 48.81	 9.81	 12.01	-2.06	 0.61	 4.87	 10.61	-3.84	-3.36	 1.69	-18.13	 5.65	 1.84	 0.86	-0.37	-42.63	-7.31	 12.40	 4.46	 6.88	 20.01	 12.31	-6.56	 0.00	 0.51	 26.29	 23.71	 23.57	 0.00	-20.95	 18.56	 0.00	 0.00	 0.00	 14.55	 0.00	 24.44	-26.04	-17.85	 36.67	 0.00	-42.86	-18.25	 0.00	 0.00	 0.00	 28.47	 37.18	 0.00	-25.72	-43.64	-71.50	
-0.63	 40.01	 3.30	 7.43	-6.07	 50.84	 10.30	 11.14	-2.01	 0.83	 4.59	 8.53	-3.84	-2.59	 1.74	-19.76	 6.25	 2.24	-1.31	-3.78	-44.48	-7.46	 16.87	 5.06	 6.50	 19.76	 14.16	-5.87	 0.00	 3.02	 29.38	 23.94	 29.20	 0.00	-19.74	 19.97	 0.00	 0.00	 0.00	 13.27	 0.00	 25.30	-30.63	-24.02	 35.49	 0.00	-41.92	-19.48	 0.00	 0.00	 0.00	 28.03	 35.92	 0.00	-25.35	-43.54	-73.00	
-1.07	 39.91	 4.05	 7.21	-4.75	 51.97	 10.75	 10.21	-1.93	 1.14	 3.99	 7.17	-3.84	-1.62	 1.81	-21.09	 5.36	 2.06	-2.20	-5.02	-49.15	-7.62	 20.37	 5.55	 5.83	 19.27	 16.07	-5.17	 0.00	 5.65	 33.39	 23.56	 35.69	 0.00	-18.21	 21.90	 0.00	 0.00	 0.00	 10.88	 0.00	 25.37	-36.45	-30.25	 31.52	 0.00	-40.44	-20.76	 0.00	 0.00	 0.00	 27.23	 34.88	 0.00	-24.53	-43.42	-73.89	
-1.57	 39.77	 4.83	 6.90	-3.50	 52.19	 11.23	 9.70	-1.92	 1.41	 2.97	 6.66	-3.84	-0.57	 1.88	-22.10	 3.15	 1.28	-1.55	-3.99	-57.09	-7.71	 22.19	 5.81	 5.05	 18.85	 17.89	-4.93	 0.00	 7.84	 38.39	 23.03	 42.76	 0.00	-16.90	 23.78	 0.00	 0.00	 0.00	 7.35	 0.00	 24.63	-43.54	-35.81	 24.37	 0.00	-38.22	-22.00	 0.00	 0.00	 0.00	 26.04	 34.21	 0.00	-23.34	-43.34	-74.20	
-2.09	 39.57	 5.66	 6.73	-2.14	 51.41	 11.57	 9.72	-1.98	 1.47	 1.66	 7.05	-3.84	 0.35	 1.94	-23.08	-0.22	-0.09	 0.76	-1.21	-66.04	-7.66	 21.20	 5.67	 3.83	 18.40	 19.63	-5.12	 0.00	 9.55	 44.14	 22.39	 50.12	 0.00	-16.02	 25.23	 0.00	 0.00	 0.00	 3.45	 0.00	 23.17	-51.95	-39.72	 14.86	 0.00	-35.27	-23.17	 0.00	 0.00	 0.00	 24.40	 33.97	 0.00	-21.74	-43.28	-73.81	
-2.60	 39.26	 6.56	 6.81	-0.48	 49.77	 11.56	 9.90	-2.01	 1.33	 0.88	 8.16	-3.84	 0.77	 1.97	-24.31	-4.46	-2.01	 4.47	 2.38	-73.35	-7.46	 16.85	 5.06	 2.04	 17.51	 20.92	-5.58	 0.00	 11.01	 50.39	 21.64	 57.47	 0.00	-15.57	 26.06	 0.00	 0.00	 0.00	 0.22	 0.00	 21.48	-61.03	-41.27	 4.41	 0.00	-31.35	-24.26	 0.00	 0.00	 0.00	 22.28	 34.15	 0.00	-19.71	-43.20	-72.49	
-3.05	 38.83	 7.54	 7.25	 1.21	 47.26	 11.27	 9.89	-1.96	 0.97	 1.75	 10.03	-3.84	 0.47	 1.95	-25.62	-8.97	-4.28	 8.76	 6.26	-78.12	-7.25	 10.13	 4.17	-0.01	 16.23	 21.63	-6.21	 0.00	 12.26	 56.87	 20.57	 64.54	 0.00	-15.43	 26.34	 0.00	 0.00	 0.00	-1.83	 0.00	 20.04	-69.55	-40.24	-5.83	 0.00	-26.62	-25.37	 0.00	 0.00	 0.00	 19.69	 34.54	 0.00	-17.25	-43.04	-70.04	
-3.43	 38.31	 8.58	 8.07	 2.31	 43.65	 11.06	 9.56	-1.86	 0.33	 5.27	 12.94	-3.84	-0.23	 1.90	-26.45	-13.25	-6.51	 12.91	 10.80	-79.57	-7.15	 2.64	 3.21	-1.74	 15.02	 21.84	-7.14	 0.00	 13.32	 63.28	 19.01	 71.04	 0.00	-15.43	 26.28	 0.00	 0.00	 0.00	-3.07	 0.00	 18.90	-76.25	-37.01	-14.93	 0.00	-22.21	-26.50	 0.00	 0.00	 0.00	 16.83	 34.87	 0.00	-14.54	-42.66	-66.42	
-3.77	 37.75	 9.69	 8.96	 2.25	 38.87	 11.40	 8.53	-1.71	-0.55	 12.26	 16.51	-3.84	-0.02	 1.92	-26.17	-17.17	-8.25	 16.57	 16.90	-77.50	-7.16	-4.39	 2.33	-2.63	 14.30	 21.51	-8.48	 0.00	 14.35	 69.14	 16.54	 76.68	 0.00	-15.47	 26.09	 0.00	 0.00	 0.00	-3.73	 0.00	 17.89	-81.06	-32.32	-21.71	 0.00	-19.08	-27.62	 0.00	 0.00	 0.00	 14.05	 35.10	 0.00	-11.85	-42.01	-61.73	
-4.12	 37.19	 10.81	 9.70	 0.70	 33.28	 12.40	 6.54	-1.43	-1.06	 23.13	 18.51	-3.84	 2.77	 2.10	-24.41	-20.33	-8.96	 19.36	 24.44	-73.75	-7.25	-10.24	 1.59	-2.63	 14.76	 20.58	-9.83	 0.00	 14.93	 73.76	 13.01	 81.17	 0.00	-15.54	 25.91	 0.00	 0.00	 0.00	-4.32	 0.00	 16.27	-84.13	-27.52	-26.71	 0.00	-16.84	-28.62	 0.00	 0.00	 0.00	 11.56	 35.25	 0.00	-9.38	-41.12	-56.06	
-4.50	 36.69	 11.92	 10.16	-1.76	 27.48	 13.30	 3.06	-0.72	 0.58	 37.11	 14.63	-3.88	 8.35	 2.48	-21.42	-22.53	-8.55	 20.66	 31.92	-70.01	-7.37	-14.51	 1.03	-2.49	 16.11	 18.68	-10.38	 0.00	 14.76	 76.88	 8.59	 84.22	 0.00	-15.68	 25.82	 0.00	 0.00	 0.00	-4.81	 0.00	 13.99	-85.61	-23.28	-31.61	 0.00	-14.97	-29.31	 0.00	 0.00	 0.00	 9.39	 35.10	 0.00	-7.20	-39.84	-49.35	
-4.87	 36.25	 12.99	 10.38	-4.67	 21.58	 13.11	-1.27	 0.30	 6.88	 51.21	 0.56	-3.96	 14.22	 2.89	-17.52	-23.45	-7.16	 20.05	 37.98	-65.83	-7.47	-17.15	 0.67	-2.74	 17.71	 15.76	-9.81	 0.00	 14.27	 78.99	 2.97	 85.55	 0.00	-15.86	 25.85	 0.00	 0.00	 0.00	-4.85	 0.00	 11.94	-85.85	-18.98	-36.19	 0.00	-13.47	-29.57	 0.00	 0.00	 0.00	 7.58	 34.21	 0.00	-5.36	-37.90	-41.22	
-5.13	 35.96	 13.96	 9.95	-7.74	 14.76	 11.53	-5.17	 1.05	 18.37	 61.96	-21.13	-4.00	 16.26	 3.04	-12.77	-23.27	-5.12	 17.34	 42.19	-59.99	-7.53	-18.50	 0.48	-3.13	 19.14	 12.47	-8.49	 0.00	 13.86	 80.80	-3.83	 85.93	 0.00	-16.01	 25.95	 0.00	 0.00	 0.00	-4.58	 0.00	 9.66	-85.40	-15.80	-40.06	 0.00	-12.19	-29.49	 0.00	 0.00	 0.00	 5.98	 32.83	 0.00	-3.79	-35.52	-31.18	
